inDegrees=no
num_controls=7
num_derivatives=13
num_iterations=92
num_multipliers=7
num_parameters=0
num_slacks=7
num_states=26
objective=0.443341
objective_accelerations=0.062109
objective_balance=0.001099
objective_effort=0.049166
objective_height=0.324288
objective_ligament=0.006678
solver_duration=1123.803494
status=Solve_Succeeded
success=true
DataType=double
version=3
OpenSimVersion=4.5
endheader
time	/jointset/ground_pelvis/pelvis_tilt/value	/jointset/ground_pelvis/pelvis_tx/value	/jointset/ground_pelvis/pelvis_ty/value	/jointset/hip_r/hip_flexion_r/value	/jointset/hip_r/hip_adduction_r/value	/jointset/hip_r/hip_rotation_r/value	/jointset/back/lumbar_extension/value	/jointset/patellofemoral_r/patellar_flexion_r/value	/jointset/knee_r/knee_flexion_r/value	/jointset/knee_r/knee_adduction_r/value	/jointset/knee_r/knee_rotation_r/value	/jointset/ankle_r/ankle_angle_r/value	/jointset/subtalar_r/subtalar_angle_r/value	/jointset/ground_pelvis/pelvis_tilt/speed	/jointset/ground_pelvis/pelvis_tx/speed	/jointset/ground_pelvis/pelvis_ty/speed	/jointset/hip_r/hip_flexion_r/speed	/jointset/hip_r/hip_adduction_r/speed	/jointset/hip_r/hip_rotation_r/speed	/jointset/back/lumbar_extension/speed	/jointset/patellofemoral_r/patellar_flexion_r/speed	/jointset/knee_r/knee_flexion_r/speed	/jointset/knee_r/knee_adduction_r/speed	/jointset/knee_r/knee_rotation_r/speed	/jointset/ankle_r/ankle_angle_r/speed	/jointset/subtalar_r/subtalar_angle_r/speed	/forceset/tau_hip_flexion_r	/forceset/tau_hip_adduction_r	/forceset/tau_hip_rotation_r	/forceset/tau_knee_flexion_r	/forceset/tau_ankle_angle_r	/forceset/tau_subtalar_angle_r	/forceset/tau_lumbar_extension	lambda_cid13_p0	lambda_cid14_p0	lambda_cid14_p1	lambda_cid14_p2	lambda_cid14_p3	lambda_cid14_p4	lambda_cid14_p5	/jointset/ground_pelvis/pelvis_tilt/accel	/jointset/ground_pelvis/pelvis_tx/accel	/jointset/ground_pelvis/pelvis_ty/accel	/jointset/hip_r/hip_flexion_r/accel	/jointset/hip_r/hip_adduction_r/accel	/jointset/hip_r/hip_rotation_r/accel	/jointset/back/lumbar_extension/accel	/jointset/patellofemoral_r/patellar_flexion_r/accel	/jointset/knee_r/knee_flexion_r/accel	/jointset/knee_r/knee_adduction_r/accel	/jointset/knee_r/knee_rotation_r/accel	/jointset/ankle_r/ankle_angle_r/accel	/jointset/subtalar_r/subtalar_angle_r/accel	gamma_cid13_p0	gamma_cid14_p0	gamma_cid14_p1	gamma_cid14_p2	gamma_cid14_p3	gamma_cid14_p4	gamma_cid14_p5
1	-0.3206626626517775	-0.03601486408365339	0.5048673712720907	1.835963321789527	-0.2305558667528358	0.2193637115202307	-0.7853805392669585	1.836538266864745	1.836538266864744	0.03066260545341246	0.1745301221978	0.4361789831435958	0.1827254917043009	0.0668699933485702	0.001995880069650425	0.01547475714006942	-0.09506309100818867	-0.003236945074567645	-0.008831818973581344	-5.005637712416371e-05	-0.01584183451823798	-0.01584183451823809	-0.001025559288710617	-2.111902389390401e-05	0.01223527845185391	0.0005526341044996033	-0.4043959007652156	0.01743580125522627	0.04789300635864981	-0.5299017894782243	0.0104727307241339	-0.03457380564265732	0.4017501889895332	-0.03492055364204517	-55.43461293631218	-30.58273709366127	11.99248325489275	12.59347333863668	-808.941386110086	73.19144977306732	1.081955811558849	-0.007177148313281883	2.531860079377237	-7.080762685138194	-0.5359202857217221	-2.219291767201058	0.0009434273247621736	-6.158281611991796	-6.158281611991792	0.4090174200036525	0.01839802106836179	-0.4829670553931238	-1.210702260883271	5.653482727258615e-10	-1.154879432776737e-10	-3.132963746404444e-09	8.009263484422166e-09	-2.310930869737083e-09	-3.769174781172504e-09	-6.150924376125644e-09
1.01	-0.3199399962768213	-0.03599521311302508	0.5051486326497318	1.834658875150802	-0.2306146679347245	0.2191658789734263	-0.7853807375898839	1.836072214790069	1.836072214790067	0.03067376717160605	0.1745302328540797	0.4362773477455976	0.182671207365859	0.07771038185890515	0.00194399783707238	0.040778298920183	-0.1658708893998234	-0.008514218233292676	-0.03073712906117049	-2.866848515044727e-05	-0.07735978986816802	-0.07735978986816791	0.003239319797551084	3.144793648364855e-05	0.007446715187302179	-0.01138770191525884	-0.40389434981682	0.01739411410953406	0.04793600873912818	-0.5301863298327104	0.01092499235585084	-0.03453643600274096	0.4015156719604965	-0.03493251166364196	-55.26911815060187	-30.53953610622117	11.98788688649288	12.41652640926623	-808.7858829727801	73.26589395210564	1.092144522286946	-0.00274318475592178	2.529717003205636	-7.087487221331272	-0.522263518855392	-2.176514935401058	-0.003122571485866769	-6.147235184829961	-6.147235184829932	0.4324327978346918	-0.003072930363923743	-0.4754413869800461	-1.182420351758364	6.295462690430286e-09	-1.339151420180538e-09	2.279501608020842e-08	4.326912840956072e-08	-9.879689511125243e-09	-6.492177528620715e-09	6.741751026718615e-08
1.02	-0.3191075131864616	-0.03597579084952775	0.5056829526003493	1.832645010767123	-0.2307259683857834	0.218748920464588	-0.7853818938421986	1.834991246624227	1.834991246624225	0.03072701960960118	0.1745305173872015	0.4363280986299463	0.1824981754513715	0.08883333642988654	0.001950138643453675	0.06608647173538167	-0.2369466399976628	-0.01373679890832082	-0.05265701138329043	-0.000241642257953566	-0.1388250527515514	-0.138825052751551	0.007392584679706461	1.365634140864894e-05	0.002712534922997078	-0.02319688110446788	-0.4033927988684376	0.01735242696385329	0.04797901111967453	-0.5304708701871915	0.01137725398757368	-0.03449906636280119	0.4012811549314484	-0.03495879547826857	-55.10327127396069	-30.49550263090968	11.98227693252429	12.2365661999932	-808.6925843053338	73.30282319620068	1.138469023688119	0.004427459478601479	2.53278628639426	-7.134353126379136	-0.524981788982359	-2.222206214107223	-0.04592890563053932	-6.147743118682444	-6.147743118682439	0.3866945791823924	0.004326309977875142	-0.4720904553437649	-1.184470894773401	9.506078909629474e-09	-1.267597906651501e-09	4.839157234481235e-08	6.572449254985813e-08	-1.97821954174966e-08	-9.338398381314783e-09	1.253110925188727e-07
1.03	-0.3181630218450884	-0.03595601665973378	0.5064702359366787	1.829920036677842	-0.2308891615048689	0.2181127283919539	-0.7853855556090357	1.8332958214839	1.833295821483899	0.03082122668642402	0.1745303893087364	0.4363313435719641	0.1822076088270387	0.1000485087880556	0.002014424472529424	0.09135692121868379	-0.3079946003843215	-0.0188861371636414	-0.07457267244396817	-0.000450189195897458	-0.2002576647740741	-0.2002576647740733	0.01143494270070547	-3.99814629596291e-05	-0.002097530893856552	-0.03490316107728852	-0.402638357987929	0.01734248417661356	0.04806627158979136	-0.5306690730119374	0.01194470846326831	-0.03444651225348336	0.4009385402531862	-0.03501965268665133	-54.88067383305322	-30.43170860718861	11.96982831790991	12.02436536350171	-808.3974327776267	73.31804666350203	1.110575902488762	0.00888191641495248	2.522180678103354	-7.081982780855263	-0.5075454352234079	-2.174934695473517	-0.002239300689527617	-6.140676220512959	-6.140676220512914	0.4109184391970546	-0.0102897362860334	-0.490566033031102	-1.161691616013486	1.269098596353778e-08	-1.182827893220089e-09	7.398474673633454e-08	8.80491985188816e-08	-2.970851507146984e-08	-1.21858765616134e-08	1.830447272971753e-07
1.04	-0.3171068718680147	-0.03593530905729053	0.5075098250476021	1.826486189927478	-0.2311033751247924	0.2172576419800425	-0.7853900871877951	1.830986139028052	1.830986139028054	0.03095543974856587	0.1745297086701185	0.436285467578098	0.1818003823894815	0.1111650635705234	0.002136821173310671	0.1165476266541868	-0.3787211722128206	-0.02394089907562582	-0.0964358792416658	-0.0004156046463652984	-0.2616765158556273	-0.2616765158556262	0.0153937817472427	-9.685569299954076e-05	-0.007111652237706994	-0.04652884374919405	-0.401883917107441	0.01733254138938578	0.04815353205992377	-0.5308672758366813	0.01251216293897109	-0.03439395814413889	0.400595925574906	-0.03509402211004306	-54.65797993936582	-30.36703655136374	11.95625572331374	11.80958838152597	-808.1663981361417	73.29678814579721	1.118745508547852	0.01604963381972839	2.516837476834443	-7.070075414747221	-0.506066520315155	-2.211715361511208	0.002697391864830306	-6.14499093048854	-6.14499093048854	0.3699907842900494	0.003679024843592102	-0.5129015607430667	-1.16835143459039	1.576266962203831e-08	-2.573017380309226e-09	9.22264461071354e-08	1.078383445895327e-07	-3.307364410006043e-08	-1.598972373085892e-08	2.258960671558742e-07
